<svg width="48" height="36" viewBox="0 0 48 36" fill="none" xmlns="http://www.w3.org/2000/svg">
<path d="M4.07903 22.8421L0.255498 19.0622L15.5482 3.9411L19.3717 7.72102L4.07903 22.8421Z" fill="#DFEAEC"/>
<path d="M22.6221 18.4943L11.725 7.72138L15.5482 3.9411L26.4453 14.714L22.6221 18.4943Z" fill="#DFEAEC"/>
<path d="M22.7 18.536L17.784 13.6761L31.6153 0L36.5313 4.8599L22.7 18.536Z" fill="#DFEAEC"/>
<path d="M43.0845 21.0583L26.6998 4.86045L31.6153 0L48 16.1979L43.0845 21.0583Z" fill="#DFEAEC"/>
<path d="M43.921 13.1579L47.7445 16.9378L32.4519 32.0589L28.6283 28.279L43.921 13.1579Z" fill="#DFEAEC"/>
<path d="M25.3779 17.5057L36.2751 28.2786L32.4519 32.0589L21.5547 21.286L25.3779 17.5057Z" fill="#DFEAEC"/>
<path d="M25.3 17.464L30.216 22.3239L16.3847 36L11.4687 31.1401L25.3 17.464Z" fill="#DFEAEC"/>
<path d="M4.9155 14.9417L21.3002 31.1395L16.3847 36L0 19.8021L4.9155 14.9417Z" fill="#DFEAEC"/>
</svg>
